<svg width="82" height="82" viewBox="0 0 82 82" fill="none" xmlns="http://www.w3.org/2000/svg">
<path fill-rule="evenodd" clip-rule="evenodd" d="M24.9837 69.6664C27.1182 70.2859 30.1045 70.4017 41 70.4017C51.8955 70.4017 54.8818 70.2859 57.0163 69.6664C63.1214 67.8947 67.8947 63.1214 69.6664 57.0163C70.2859 54.8818 70.4017 51.8955 70.4017 41C70.4017 30.1045 70.2859 27.1182 69.6664 24.9837C67.8947 18.8786 63.1214 14.1053 57.0163 12.3336C54.8818 11.7141 51.8955 11.5983 41 11.5983C30.1045 11.5983 27.1182 11.7141 24.9837 12.3336C18.8786 14.1053 14.1053 18.8786 12.3336 24.9837C11.7141 27.1182 11.5983 30.1045 11.5983 41C11.5983 51.8955 11.7141 54.8818 12.3336 57.0163C14.1053 63.1214 18.8786 67.8947 24.9837 69.6664ZM1.19483 21.7512C0 25.8685 0 30.9123 0 41C0 51.0877 0 56.1315 1.19483 60.2488C4.07381 70.1695 11.8305 77.9262 21.7512 80.8052C25.8685 82 30.9123 82 41 82C51.0877 82 56.1315 82 60.2488 80.8052C70.1695 77.9262 77.9262 70.1695 80.8052 60.2488C82 56.1315 82 51.0877 82 41C82 30.9123 82 25.8685 80.8052 21.7512C77.9262 11.8305 70.1695 4.07381 60.2488 1.19483C56.1315 0 51.0877 0 41 0C30.9123 0 25.8685 0 21.7512 1.19483C11.8305 4.07381 4.07381 11.8305 1.19483 21.7512Z" fill="#27272A"/>
<path d="M46.8679 70.3834C53.1409 70.3322 55.3656 70.1576 57.0556 69.6664C63.151 67.8947 67.9169 63.1214 69.6858 57.0163C70.3042 54.8818 70.4199 51.8955 70.4199 41C70.4199 30.1045 70.3042 27.1182 69.6858 24.9837C67.9169 18.8786 63.151 14.1053 57.0556 12.3336C55.3656 11.8424 53.1409 11.6679 46.8679 11.6166C43.6652 11.5905 41.0644 9.00194 41.0644 5.79915C41.0644 2.59637 43.6625 -0.00987922 46.8652 0.0116176C53.2438 0.0544309 57.0495 0.255021 60.283 1.19483C70.1881 4.07381 77.9326 11.8305 80.807 21.7512C82 25.8685 82 30.9123 82 41C82 51.0877 82 56.1315 80.807 60.2488C77.9326 70.1695 70.1881 77.9262 60.283 80.8052C57.0495 81.745 53.2438 81.9456 46.8652 81.9884C43.6625 82.0099 41.0644 79.4036 41.0644 76.2009C41.0644 72.9981 43.6652 70.4095 46.8679 70.3834Z" fill="#27272A"/>
<path fill-rule="evenodd" clip-rule="evenodd" d="M40.4875 21.525C42.4688 21.525 44.075 23.0232 44.075 24.8713V56.1037C44.075 57.9518 42.4688 59.45 40.4875 59.45C38.5062 59.45 36.9 57.9518 36.9 56.1037V24.8713C36.9 23.0232 38.5062 21.525 40.4875 21.525Z" fill="#E6E6E6"/>
<path fill-rule="evenodd" clip-rule="evenodd" d="M22.5051 37.8907C23.8119 36.5698 25.9307 36.5698 27.2375 37.8907L40.4875 51.2839L53.7375 37.8907C55.0443 36.5698 57.1631 36.5698 58.4699 37.8907C59.7767 39.2117 59.7767 41.3534 58.4699 42.6743L42.8537 58.4593C41.5469 59.7803 39.4281 59.7803 38.1213 58.4593L22.5051 42.6743C21.1983 41.3534 21.1983 39.2117 22.5051 37.8907Z" fill="#E6E6E6"/>
</svg>
