<svg width="36" height="36" viewBox="0 0 36 36" fill="none" xmlns="http://www.w3.org/2000/svg">
<path fill-rule="evenodd" clip-rule="evenodd" d="M10.9684 30.5853C11.9055 30.8572 13.2166 30.9081 18 30.9081C22.7834 30.9081 24.0945 30.8572 25.0316 30.5853C27.7118 29.8074 29.8074 27.7118 30.5853 25.0316C30.8572 24.0945 30.9081 22.7834 30.9081 18C30.9081 13.2166 30.8572 11.9055 30.5853 10.9684C29.8074 8.28817 27.7118 6.19255 25.0316 5.41474C24.0945 5.1428 22.7834 5.09194 18 5.09194C13.2166 5.09194 11.9055 5.1428 10.9684 5.41474C8.28817 6.19255 6.19255 8.28817 5.41474 10.9684C5.1428 11.9055 5.09194 13.2166 5.09194 18C5.09194 22.7834 5.1428 24.0945 5.41474 25.0316C6.19255 27.7118 8.28817 29.8074 10.9684 30.5853ZM0.524558 9.54931C0 11.3569 0 13.5713 0 18C0 22.4287 0 24.6431 0.524558 26.4507C1.7885 30.8061 5.19388 34.2115 9.54931 35.4754C11.3569 36 13.5713 36 18 36C22.4287 36 24.6431 36 26.4507 35.4754C30.8061 34.2115 34.2115 30.8061 35.4754 26.4507C36 24.6431 36 22.4287 36 18C36 13.5713 36 11.3569 35.4754 9.54931C34.2115 5.19388 30.8061 1.7885 26.4507 0.524558C24.6431 0 22.4287 0 18 0C13.5713 0 11.3569 0 9.54931 0.524558C5.19388 1.7885 1.7885 5.19388 0.524558 9.54931Z" fill="#27272A"/>
<path d="M20.5762 30.9C23.3301 30.8775 24.3069 30.8009 25.0488 30.5853C27.7248 29.8074 29.8172 27.7118 30.5938 25.0316C30.8653 24.0945 30.9161 22.7834 30.9161 18C30.9161 13.2166 30.8653 11.9055 30.5938 10.9684C29.8172 8.28817 27.7248 6.19255 25.0488 5.41474C24.3069 5.1991 23.3301 5.12247 20.5762 5.09999C19.1701 5.08851 18.0283 3.95207 18.0283 2.54597C18.0283 1.13987 19.1689 -0.00433722 20.575 0.00510041C23.3753 0.0238965 25.0461 0.11196 26.4657 0.524558C30.8143 1.7885 34.2143 5.19388 35.4763 9.54931C36 11.3569 36 13.5713 36 18C36 22.4287 36 24.6431 35.4763 26.4507C34.2143 30.8061 30.8143 34.2115 26.4657 35.4754C25.0461 35.888 23.3753 35.9761 20.575 35.9949C19.1689 36.0043 18.0283 34.8601 18.0283 33.454C18.0283 32.0479 19.1701 30.9115 20.5762 30.9Z" fill="white"/>
</svg>
