<svg width="765" height="765" viewBox="0 0 765 765" fill="none" xmlns="http://www.w3.org/2000/svg">
<path fill-rule="evenodd" clip-rule="evenodd" d="M382.5 737.936C578.802 737.936 737.936 578.802 737.936 382.5C737.936 186.198 578.802 27.0637 382.5 27.0637C186.198 27.0637 27.0637 186.198 27.0637 382.5C27.0637 578.802 186.198 737.936 382.5 737.936ZM382.5 765C593.749 765 765 593.749 765 382.5C765 171.251 593.749 0 382.5 0C171.251 0 0 171.251 0 382.5C0 593.749 171.251 765 382.5 765Z" fill="#A1A1AA"/>
<path fill-rule="evenodd" clip-rule="evenodd" d="M368.968 737.936L368.968 665.767L396.032 665.767L396.032 737.936L368.968 737.936Z" fill="#A1A1AA"/>
</svg>
